name D:\school\WTK\thesis\model\3dpredictsim\Results\Final\Fal_s1_bCst_PF_Song2011_ls150_MT_nl_Song2011_MTP_Mu0_ig1_v14.mot
datacolumns 128
datarows 4
range 0.00000000 0.03058407
endheader
time	pelvis_tilt	pelvis_list	pelvis_rotation	pelvis_tx	pelvis_ty	pelvis_tz	hip_flexion_l	hip_adduction_l	hip_rotation_l	hip_flexion_r	hip_adduction_r	hip_rotation_r	knee_angle_l	knee_angle_r	ankle_angle_l	ankle_angle_r	subtalar_angle_l	subtalar_angle_r	tmt_angle_l	tmt_angle_r	mtp_angle_l	mtp_angle_r	lumbar_extension	lumbar_bending	lumbar_rotation	arm_flex_l	arm_add_l	arm_rot_l	arm_flex_r	arm_add_r	arm_rot_r	elbow_flex_l	elbow_flex_r	pro_sup_l	pro_sup_r	glut_med1_l/activation	glut_med2_l/activation	glut_med3_l/activation	glut_min1_l/activation	glut_min2_l/activation	glut_min3_l/activation	semimem_l/activation	semiten_l/activation	bifemlh_l/activation	bifemsh_l/activation	sar_l/activation	add_long_l/activation	add_brev_l/activation	add_mag1_l/activation	add_mag2_l/activation	add_mag3_l/activation	tfl_l/activation	pect_l/activation	grac_l/activation	glut_max1_l/activation	glut_max2_l/activation	glut_max3_l/activation	iliacus_l/activation	psoas_l/activation	quad_fem_l/activation	gem_l/activation	peri_l/activation	rect_fem_l/activation	vas_med_l/activation	vas_int_l/activation	vas_lat_l/activation	med_gas_l/activation	lat_gas_l/activation	soleus_l/activation	tib_post_l/activation	flex_dig_l/activation	flex_hal_l/activation	tib_ant_l/activation	per_brev_l/activation	per_long_l/activation	per_tert_l/activation	ext_dig_l/activation	ext_hal_l/activation	ercspn_l/activation	intobl_l/activation	extobl_l/activation	glut_med1_r/activation	glut_med2_r/activation	glut_med3_r/activation	glut_min1_r/activation	glut_min2_r/activation	glut_min3_r/activation	semimem_r/activation	semiten_r/activation	bifemlh_r/activation	bifemsh_r/activation	sar_r/activation	add_long_r/activation	add_brev_r/activation	add_mag1_r/activation	add_mag2_r/activation	add_mag3_r/activation	tfl_r/activation	pect_r/activation	grac_r/activation	glut_max1_r/activation	glut_max2_r/activation	glut_max3_r/activation	iliacus_r/activation	psoas_r/activation	quad_fem_r/activation	gem_r/activation	peri_r/activation	rect_fem_r/activation	vas_med_r/activation	vas_int_r/activation	vas_lat_r/activation	med_gas_r/activation	lat_gas_r/activation	soleus_r/activation	tib_post_r/activation	flex_dig_r/activation	flex_hal_r/activation	tib_ant_r/activation	per_brev_r/activation	per_long_r/activation	per_tert_r/activation	ext_dig_r/activation	ext_hal_r/activation	ercspn_r/activation	intobl_r/activation	extobl_r/activation	
          0.00000000	         -8.30619391	         -1.98716488	          4.21691646	          0.00000000	          0.91260163	         -0.00287741	        -12.11979033	          0.01873139	          7.55857410	         33.67033356	          2.99590822	         -3.91150601	         -6.78160062	         -8.76195939	         -4.22408192	          4.77540990	          3.79400282	         -5.31303816	          2.36392906	         -0.25258919	         30.26674004	         24.79373880	          2.50587236	          0.50392142	         -1.97366553	          3.46822865	        -13.46456759	         16.10035215	         -4.67145268	        -13.54152106	          4.17957576	         38.02495225	         20.33062561	         86.51662706	         86.51662706	          0.22500599	          0.10416059	          0.06859884	          0.26634863	          0.18030373	          0.11383160	          0.05000072	          0.05000031	          0.05000017	          0.06181470	          0.08989280	          0.11088380	          0.18065867	          0.05000192	          0.05000514	          0.05000106	          0.52663319	          0.05933405	          0.05000300	          0.05000208	          0.05000120	          0.05000081	          0.30345284	          0.70114235	          0.05000026	          0.05000042	          0.06832638	          0.22609876	          0.05063100	          0.05005304	          0.05001188	          0.25785529	          0.36777998	          0.28216353	          0.32988661	          0.32657761	          0.42420077	          0.05000004	          0.05000179	          0.08413231	          0.05000025	          0.05000007	          0.05000032	          0.05000015	          0.05000009	          0.05133637	          0.05849557	          0.05849567	          0.05000028	          0.05849575	          0.05849571	          0.05849558	          0.23932328	          0.06553660	          0.14871558	          0.05498865	          0.05000021	          0.13264940	          0.29091972	          0.11225823	          0.20711639	          0.13285614	          0.05000022	          0.05297094	          0.13856821	          0.05000388	          0.05000390	          0.17229953	          0.05849556	          0.05000036	          0.37236392	          0.27896396	          0.14631555	          0.05249917	          0.14642502	          0.14639103	          0.12278065	          0.06620593	          0.05805767	          0.06164188	          0.05000003	          0.05854937	          0.05000085	          0.58010697	          0.26448176	          0.19217691	          0.13213450	          0.46411934	          0.23652418	          0.06031874	          0.09420939	          0.10168669	
          0.01019469	         -8.29407106	         -2.13215363	          4.48306134	          0.01702125	          0.91156117	         -0.00268095	        -11.92549682	         -0.26546642	          7.43158419	         33.08561666	          3.34353107	         -3.68881887	         -8.83100876	         -9.19722771	         -4.89151762	          4.06146050	          4.70857360	         -5.50439797	          1.91291241	         -0.30545613	         32.00213311	         24.88641508	          2.70680589	          0.72938089	         -2.01166569	          3.06127994	        -13.47869524	         16.24701970	         -5.32061281	        -13.56368466	          3.68087572	         39.03512506	         19.97206134	         86.51662706	         86.51662706	          0.19232741	          0.08903292	          0.05863596	          0.22766581	          0.15411750	          0.09729940	          0.05000388	          0.05000115	          0.05000196	          0.05283713	          0.07683750	          0.22857254	          0.17058243	          0.20183335	          0.05849969	          0.10090027	          0.45852242	          0.05071747	          0.05000161	          0.05000846	          0.05001324	          0.05849578	          0.25938107	          0.64978870	          0.05000117	          0.05849566	          0.05849537	          0.19326158	          0.14997909	          0.14997875	          0.13017446	          0.22040581	          0.31436566	          0.24118366	          0.28197581	          0.27914779	          0.36259285	          0.05000003	          0.05000015	          0.07433222	          0.05000012	          0.05000004	          0.05000021	          0.06979798	          0.06111874	          0.05849566	          0.05000001	          0.05000011	          0.12396259	          0.05000017	          0.05000014	          0.05000012	          0.20456596	          0.05601854	          0.12711699	          0.05000013	          0.05182843	          0.11338432	          0.31640774	          0.38387880	          0.24598806	          0.13156641	          0.05000101	          0.06843969	          0.16767074	          0.07548340	          0.10139374	          0.14727597	          0.05000012	          0.06843480	          0.62613977	          0.23844882	          0.12506557	          0.05849931	          0.12515931	          0.12513026	          0.10494888	          0.06835663	          0.06843391	          0.05792889	          0.06843416	          0.05004621	          0.05383889	          0.50424182	          0.31299810	          0.22364955	          0.11294406	          0.42559592	          0.20217284	          0.05155838	          0.08052694	          0.08691828	
          0.02038938	         -8.27713189	         -2.28691942	          4.72144138	          0.03425521	          0.91054579	         -0.00250084	        -11.62381738	         -0.55129776	          7.29117952	         32.39799035	          3.59933360	         -3.43347047	        -11.04098633	         -9.84278303	         -5.76505544	          3.49251449	          5.59338103	         -5.74317740	          1.40692386	         -0.34952801	         33.80476881	         25.00333995	          2.92149858	          0.97427157	         -2.03798164	          2.59568376	        -13.48745895	         16.33792531	         -5.97384948	        -13.59946784	          3.26848207	         40.02235997	         19.62759899	         86.51662706	         86.51662706	          0.23528550	          0.07610233	          0.05012003	          0.25489453	          0.13173458	          0.08316827	          0.05000155	          0.05000036	          0.05000019	          0.05000058	          0.06843309	          0.19537607	          0.14580848	          0.17252032	          0.05000431	          0.08624622	          0.53619889	          0.08001996	          0.05000296	          0.05000198	          0.05000097	          0.05000060	          0.22171007	          0.61028591	          0.05000018	          0.05000069	          0.05000017	          0.16519337	          0.12819703	          0.12819674	          0.11126871	          0.18839529	          0.26870894	          0.20615547	          0.24102323	          0.23860608	          0.30993202	          0.05000011	          0.05935951	          0.12767242	          0.05000029	          0.07925068	          0.05000041	          0.07091321	          0.05224219	          0.05000014	          0.22661573	          0.29782234	          0.41734104	          0.43440414	          0.28104384	          0.28880187	          0.17801690	          0.06224211	          0.11342646	          0.08898526	          0.05000110	          0.09691708	          0.27045451	          0.32812647	          0.21026233	          0.14039258	          0.05000061	          0.05850515	          0.14332098	          0.18379776	          0.15261477	          0.12887432	          0.05849571	          0.05849579	          0.53520280	          0.20381900	          0.35691491	          0.05000323	          0.10698193	          0.10695711	          0.08970674	          0.05842905	          0.05849517	          0.05139923	          0.05849536	          0.05000061	          0.05000107	          0.58634865	          0.29869632	          0.19116804	          0.43692299	          0.49363172	          0.17281059	          0.07651580	          0.10958098	          0.07429476	
          0.03058407	         -8.25775790	         -2.43422834	          4.92819098	          0.05152281	          0.90959445	         -0.00229368	        -11.18676284	         -0.82389450	          7.15873231	         31.65453066	          3.83729154	         -3.17171072	        -13.43353230	        -10.43629194	         -6.85726663	          3.05290426	          6.46438930	         -5.99297886	          0.83384779	         -0.36293227	         35.66468858	         25.22691132	          3.13225938	          1.21880502	         -2.05432797	          2.10518404	        -13.50070521	         16.39690957	         -6.58895146	        -13.63731094	          2.94443546	         40.96062816	         19.26800996	         86.51662706	         86.51662706	          0.20111398	          0.06504973	          0.05000011	          0.21787521	          0.11260230	          0.07108948	          0.05000197	          0.05000032	          0.05000026	          0.05000016	          0.05849467	          0.20203040	          0.22081163	          0.14746628	          0.05001040	          0.12633518	          0.51486965	          0.06839931	          0.05000114	          0.05000239	          0.05000126	          0.05000093	          0.18951014	          0.53801191	          0.05000025	          0.05000110	          0.05000058	          0.14120165	          0.10958068	          0.10958067	          0.10958058	          0.16103380	          0.22968314	          0.17621459	          0.20601837	          0.20395234	          0.26491928	          0.10147781	          0.12641656	          0.10913069	          0.05000171	          0.17034642	          0.05000033	          0.09478003	          0.05000001	          0.05000006	          0.30539351	          0.38494766	          0.50214424	          0.37131377	          0.24022685	          0.25198286	          0.15216305	          0.09992094	          0.10341348	          0.07606187	          0.05000568	          0.08284141	          0.23117523	          0.28047157	          0.19036462	          0.17640189	          0.05000036	          0.05000890	          0.12250668	          0.27808042	          0.22221811	          0.18790132	          0.05000021	          0.05000027	          0.45747409	          0.17421764	          0.30507909	          0.05000007	          0.09144462	          0.09142341	          0.07667836	          0.05000004	          0.05000009	          0.05000001	          0.05000004	          0.05000034	          0.05000021	          0.65985790	          0.27737099	          0.16546117	          0.62235991	          0.53584790	          0.22590034	          0.09597320	          0.09366605	          0.06350462	
